<svg width="719" height="215" viewBox="0 0 719 215" fill="none" xmlns="http://www.w3.org/2000/svg">
<path d="M182.989 0H28.1521C12.6041 0 0 12.8345 0 28.6667V186.333C0 202.165 12.6041 215 28.1521 215H182.989C198.537 215 211.141 202.165 211.141 186.333V28.6667C211.141 12.8345 198.537 0 182.989 0Z" fill="#212121"/>
<path d="M161.875 62.2586H49.2662V81.4952H161.875V62.2586Z" fill="white"/>
<path d="M149.32 133.505H49.2662V152.742H149.32V133.505Z" fill="white"/>
<path d="M114.336 97.8816H49.2662V117.118H114.336V97.8816Z" fill="white"/>
<path d="M235.476 107.06C235.476 103.597 236.051 100.213 237.201 96.9088C238.403 93.5516 240.127 90.5141 242.374 87.7964C244.673 85.0252 247.469 82.8405 250.761 81.2418C254.053 79.5898 257.789 78.7639 261.969 78.7639C266.934 78.7639 271.192 79.9364 274.745 82.281C278.299 84.5725 280.938 87.53 282.662 91.1536L277.097 94.8305C276 92.4325 274.589 90.5406 272.864 89.1552C271.192 87.7164 269.363 86.7038 267.378 86.1178C265.444 85.5317 263.537 85.2385 261.656 85.2385C258.573 85.2385 255.829 85.878 253.426 87.1569C251.074 88.4358 249.089 90.1409 247.469 92.2726C245.849 94.4043 244.621 96.8023 243.785 99.4666C243.001 102.078 242.609 104.716 242.609 107.38C242.609 110.311 243.079 113.135 244.02 115.853C245.013 118.571 246.371 120.969 248.096 123.047C249.82 125.125 251.858 126.777 254.209 128.003C256.561 129.228 259.121 129.841 261.891 129.841C263.824 129.841 265.81 129.495 267.848 128.802C269.886 128.109 271.793 127.044 273.57 125.605C275.346 124.113 276.757 122.194 277.802 119.85L283.681 123.127C282.532 125.951 280.755 128.349 278.351 130.321C275.947 132.293 273.256 133.785 270.278 134.797C267.352 135.81 264.451 136.316 261.577 136.316C257.763 136.316 254.262 135.49 251.074 133.838C247.887 132.133 245.117 129.895 242.766 127.124C240.467 124.299 238.664 121.155 237.357 117.691C236.103 114.174 235.476 110.631 235.476 107.06ZM315.184 136.236C311.265 136.236 307.712 135.437 304.524 133.838C301.337 132.239 298.567 130.081 296.216 127.363C293.916 124.592 292.14 121.502 290.886 118.091C289.632 114.627 289.005 111.083 289.005 107.46C289.005 103.677 289.658 100.08 290.964 96.669C292.323 93.2053 294.178 90.1409 296.529 87.4766C298.933 84.7589 301.729 82.6272 304.916 81.082C308.103 79.4833 311.579 78.684 315.341 78.684C319.26 78.684 322.812 79.5098 326.001 81.1619C329.189 82.814 331.933 85.0252 334.231 87.7964C336.529 90.5675 338.307 93.658 339.561 97.0686C340.815 100.479 341.442 103.969 341.442 107.54C341.442 111.323 340.79 114.947 339.482 118.411C338.175 121.821 336.322 124.885 333.917 127.603C331.566 130.267 328.798 132.373 325.609 133.918C322.42 135.463 318.946 136.236 315.184 136.236ZM296.137 107.46C296.137 110.338 296.581 113.135 297.47 115.853C298.411 118.517 299.717 120.889 301.389 122.967C303.061 125.045 305.073 126.697 307.424 127.923C309.776 129.148 312.388 129.761 315.263 129.761C318.241 129.761 320.906 129.122 323.257 127.843C325.609 126.564 327.593 124.859 329.214 122.727C330.885 120.596 332.139 118.198 332.977 115.533C333.864 112.869 334.309 110.178 334.309 107.46C334.309 104.582 333.839 101.811 332.898 99.1469C332.011 96.4826 330.704 94.1111 328.979 92.0328C327.308 89.9011 325.295 88.2494 322.944 87.077C320.646 85.8514 318.084 85.2385 315.263 85.2385C312.284 85.2385 309.619 85.878 307.268 87.1569C304.916 88.3824 302.904 90.061 301.232 92.1927C299.612 94.3244 298.358 96.7224 297.47 99.3867C296.581 101.998 296.137 104.689 296.137 107.46ZM359.01 92.3526V135.836H351.956V79.0836H357.913L391.93 123.447V79.1636H398.985V135.836H392.557L359.01 92.3526ZM453.118 85.4783H433.914V135.836H426.86V85.4783H407.656V79.0836H453.118V85.4783ZM461.843 135.836V79.0836H468.897V135.836H461.843ZM489.971 92.3526V135.836H482.917V79.0836H488.874L522.891 123.447V79.1636H529.946V135.836H523.518L489.971 92.3526ZM566.913 136.236C562.47 136.236 558.737 135.463 555.705 133.918C552.673 132.319 550.243 130.188 548.415 127.523C546.587 124.805 545.255 121.741 544.418 118.331C543.58 114.92 543.164 111.403 543.164 107.78V79.0836H550.218V107.78C550.218 110.551 550.478 113.269 551.002 115.933C551.575 118.544 552.491 120.889 553.745 122.967C554.999 125.045 556.699 126.697 558.84 127.923C560.981 129.148 563.646 129.761 566.835 129.761C570.073 129.761 572.767 129.148 574.908 127.923C577.049 126.644 578.749 124.965 580.003 122.887C581.257 120.755 582.144 118.384 582.668 115.773C583.241 113.162 583.53 110.497 583.53 107.78V79.0836H590.584V107.78C590.584 111.616 590.139 115.267 589.252 118.731C588.415 122.141 587.057 125.152 585.176 127.763C583.295 130.374 580.84 132.453 577.808 133.998C574.83 135.49 571.199 136.236 566.913 136.236ZM626.793 136.236C622.354 136.236 618.616 135.463 615.584 133.918C612.556 132.319 610.126 130.188 608.295 127.523C606.467 124.805 605.135 121.741 604.298 118.331C603.464 114.92 603.043 111.403 603.043 107.78V79.0836H610.098V107.78C610.098 110.551 610.361 113.269 610.882 115.933C611.459 118.544 612.371 120.889 613.625 122.967C614.879 125.045 616.578 126.697 618.72 127.923C620.864 129.148 623.529 129.761 626.715 129.761C629.957 129.761 632.647 129.148 634.788 127.923C636.933 126.644 638.629 124.965 639.883 122.887C641.137 120.755 642.027 118.384 642.548 115.773C643.125 113.162 643.41 110.497 643.41 107.78V79.0836H650.464V107.78C650.464 111.616 650.022 115.267 649.132 118.731C648.298 122.141 646.937 125.152 645.056 127.763C643.175 130.374 640.72 132.453 637.688 133.998C634.71 135.49 631.079 136.236 626.793 136.236ZM711.837 135.836V92.5124L693.496 125.845H689.185L670.765 92.5124V135.836H663.711V79.0836H671.157L691.301 115.933L711.523 79.0836H718.891V135.836H711.837Z" fill="#212121"/>
</svg>
