
  <svg
    xmlns="http://www.w3.org/2000/svg"
    version="1.1"
    width="200"
    height="200"
    viewBox="0 0 500 500"
  >
    
  <rect
    width="500"
    height="500"
    rx="250"
    fill="#b5f4bc"
  />

    <path fill="#50c8c6" d="M440.7 280.2c0 6.7-.4 13.1-1.2 19.2-1.1 7.9-2.9 15.2-5.3 21.9a86.3 86.3 0 01-20.7 32.6C393 374.3 362 385.2 325 390.6c-23 3.3-48.3 4.5-74.9 4.5a529 529 0 01-75-4.6c-68-9.8-115.7-38.4-115.7-110.3 0-96.3 85.4-174.3 190.7-174.3 95.7 0 175 64.4 188.6 148.3a161 161 0 012.1 26z"/>
  
    <path fill="#b4a5a5" d="M141.3 140c2.3 7.6 28.7-1.3 26-13.2 0-64.8-28.5-105.3-67-50.6 25.7-13 39.8 7 41 63.8zM358.7 140c-2.3 7.6-28.7-1.3-26.1-13.2 0-64.8 28.6-105.3 67.1-50.6-25.8-13-39.8 7-41 63.8z"/>
    <path fill="#50c8c6" d="M135.9 140.5a177 177 0 00-55.7 60.3c-107.4-4-38.6-64.3 55.7-60.3zM364.1 140.5a177 177 0 0155.7 60.3c107.3-4 38.6-64.3-55.7-60.3z"/>
    <path fill="#fff" d="M388.7 160.6a177 177 0 0128 34.9c68.8-1 72.8-34.4-28-35zM111.3 160.6a177 177 0 00-28 34.9c-68.8-1-72.8-34.4 28-35z"/>
  
    <path fill="#32aaa8" d="M305.2 329c0 25-24.7 45.2-55.2 45.2S194.8 354 194.8 329c0-14 7.7-26.5 20-34.8 3.6 4.6 9 7.5 14.6 10.4-8.2-6.1-12-11.5-13.6-16.5-.4-1.4-.7-2.7-.9-4.1-1.3-9.8 2.1-18.6 9.4-21.9 8.4-3.8 19.3 1.4 25.7 11.8 6.4-10.4 17.3-15.6 25.7-11.8 8.4 3.8 11.6 15 8.4 26.4v.2c-1.7 4.8-5.6 10-13.5 16 5.6-3 11-6 14.7-10.5a42.5 42.5 0 0 1 20 34.8z"/>
    <path fill="#15212a" d="M243.2 294.8c8-3.7 5-17-2.1-20.8-7.1-3.9-16.9 3-15.5 8.2s12.8 14.8 17.6 12.6zM256.8 294.8c-8-3.7-5-17 2.1-20.8 7.2-3.9 16.9 3 15.5 8.2-1.4 5.2-12.8 14.8-17.6 12.6z"/>
    <path fill="#15212a" d="M294.2 338.9l-.5-.1c-28.5-9.9-57-9.7-84.9 0-.6.1-1 .3-1.4-.3-.3-.6 0-1.1.5-1.4 11.3-5.8 25.7-5.8 35.8-9.3a18 18 0 0 1 11.8-.1c9.8 3.3 26.8 3.5 39 9.5.5.3 1 .8.7 1.4-.2.4-.6.3-1 .3z"/>
  
    <path fill="#15212a" d="M339.3 256.8c0 15.3-8 15.1-17.9 15.1-9.8 0-17.8.2-17.8-15 0-15.4 8-27.8 17.8-27.8 9.9 0 17.9 12.4 17.9 27.7z"/>
    <ellipse cx="329.2" cy="241.9" fill="#fff" rx="5.1" ry="7.5" transform="rotate(-22 329.2 242)"/>
    <path fill="#15212a" d="M196.5 256.8c0 15.3-8 15.1-18 15.1s-17.8.2-17.8-15c0-15.4 8-27.8 17.9-27.8s17.9 12.4 17.9 27.7z"/>
    <ellipse cx="186.4" cy="241.9" fill="#fff" rx="5.1" ry="7.5" transform="rotate(-22 186.4 242)"/>
  
    <path fill="#15212a" d="M139.8 203c-1 0-2-.3-2.8-.9a5 5 0 01-1.3-7c10.5-15.5 25.8-20.4 45.7-14.5a5 5 0 11-2.9 9.6c-15.6-4.7-26.6-1.3-34.5 10.6a5 5 0 01-4.2 2.2zM361.4 203a5 5 0 01-4.2-2.2c-8-12-19-15.3-34.5-10.6a5 5 0 11-2.9-9.6c19.9-6 35.2-1 45.7 14.6a5 5 0 01-4.1 7.8z"/>
  
  <path
    d="M250,0a250,250 0 1,1 0,500"
    fill="#15212a"
    fill-opacity="0.08"
  />

  </svg>
